<svg xmlns="http://www.w3.org/2000/svg" viewBox="0 0 1525.49 589.74"><defs><style>.a{fill:#fff;}</style></defs><title>MacStadium Logo White</title><rect class="a" x="280.98" y="444.75" width="29" height="144.99"/><rect class="a" x="279.99" width="29" height="144.99"/><rect class="a" x="211.1" y="433.62" width="29" height="144.99" transform="translate(171.39 -45.35) rotate(18.41)"/><rect class="a" x="148.88" y="401.86" width="29" height="144.99" transform="translate(309.85 -5.49) rotate(35.98)"/><rect class="a" x="99.77" y="351.98" width="29" height="144.99" transform="translate(393.03 84.58) rotate(54.42)"/><rect class="a" x="68.72" y="290.08" width="29" height="144.99" transform="translate(402.18 171.13) rotate(71.95)"/><rect class="a" x="57.99" y="221.76" width="29" height="144.99" transform="translate(366.74 221.76) rotate(90)"/><rect class="a" x="68.19" y="153.67" width="29" height="144.99" transform="translate(323.33 217.25) rotate(107.96)"/><rect class="a" x="99.75" y="91.11" width="29" height="144.99" transform="translate(313.75 168.23) rotate(126.25)"/><rect class="a" x="211.1" y="10.67" width="29" height="144.99" transform="matrix(0.95, -0.31, 0.31, 0.95, -14.68, 74.33)"/><rect class="a" x="149.6" y="41.35" width="29" height="144.99" transform="translate(-35.55 119.21) rotate(-36.29)"/><path class="a" d="M349,307.34c-.75-20.25-1.5-44.5-1.5-69.25H347c-5.5,21.5-12.5,45.5-19,65.25l-20.5,65.75H277.75l-18-65.25c-5.5-19.75-11-43.5-15.25-65.75H244c-.75,22.75-1.75,48.75-2.75,69.75l-3.25,64H202.75l10.75-168.5h50.75l16.5,56.25c5.5,19.5,10.5,40.5,14.25,60.25h1c4.5-19.5,10.25-41.75,16-60.5l17.75-56h50l9,168.5h-37Z"/><path class="a" d="M518.5,342.34c0,11.5.5,22.75,2,29.5H486.25L484,359.59h-.75c-8,9.75-20.5,15-35,15-24.75,0-39.5-18-39.5-37.5,0-31.75,28.5-46.75,71.75-46.75v-1.5c0-6.5-3.5-15.75-22.25-15.75-12.5,0-25.75,4.25-33.75,9l-7-24.25c8.5-4.75,25.25-11,47.5-11,40.75,0,53.5,24,53.5,52.75Zm-36.75-28.25c-20,0-35.5,4.75-35.5,19.25,0,9.75,6.5,14.5,15,14.5a21,21,0,0,0,19.75-14,27.25,27.25,0,0,0,.75-6.5Z"/><path class="a" d="M640.5,368.59c-6.75,3.25-19.5,5.75-34,5.75-39.5,0-64.75-24.25-64.75-62.5,0-35.5,24.5-64.75,70-64.75,10,0,21,1.75,29,4.75l-6,28.25c-4.5-2-11.25-3.75-21.25-3.75-20,0-33,14.25-32.75,34,0,22.5,15,34.25,33.5,34.25,9,0,16-1.5,21.75-4Z"/><path class="a" d="M687.5,345.34a77.08,77.08,0,0,0,39,11c22.25,0,35.25-11.75,35.25-28.75,0-15.75-9-24.75-31.75-33.5-27.5-9.75-44.5-24-44.5-47.75,0-26.25,21.75-45.75,54.5-45.75,17.25,0,29.75,4,37.25,8.25l-6,17.75a67.11,67.11,0,0,0-32-8c-23,0-31.75,13.75-31.75,25.25,0,15.75,10.25,23.5,33.5,32.5,28.5,11,43,24.75,43,49.5,0,26-19.25,48.5-59,48.5-16.25,0-34-4.75-43-10.75Z"/><path class="a" d="M838.75,222v28.84h31.5v16.75h-31.5v65.25c0,15,4.25,23.5,16.5,23.5a48.94,48.94,0,0,0,12.75-1.5l1,16.5c-4.25,1.75-11,3-19.5,3-10.25,0-18.5-3.25-23.75-9.25-6.25-6.5-8.5-17.25-8.5-31.5v-66H798.5V250.84h18.75V228.56Z"/><path class="a" d="M962,371.84l-1.75-15.25h-.75c-6.75,9.5-19.75,18-37,18-24.5,0-37-17.25-37-34.75,0-29.25,26-45.25,72.75-45v-2.5c0-10-2.75-28-27.5-28a60.29,60.29,0,0,0-31.5,9l-5-14.5c10-6.5,24.5-10.75,39.75-10.75,37,0,46,25.25,46,49.5v45.25c0,10.5.5,20.75,2,29Zm-3.25-61.75c-24-.5-51.25,3.75-51.25,27.25,0,14.25,9.5,21,20.75,21,15.75,0,25.75-10,29.25-20.25a23,23,0,0,0,1.25-7Z"/><path class="a" d="M1120,194.34V340.59c0,10.75.25,23,1,31.25h-19.75l-1-21h-.5c-6.75,13.5-21.5,23.75-41.25,23.75-29.25,0-51.75-24.75-51.75-61.5-.25-40.25,24.75-65,54.25-65,18.5,0,31,8.75,36.5,18.5h.5V194.34Zm-22,105.75a38.83,38.83,0,0,0-1-9.25c-3.25-14-15.25-25.5-31.75-25.5-22.75,0-36.25,20-36.25,46.75,0,24.5,12,44.75,35.75,44.75,14.75,0,28.25-9.75,32.25-26.25a38.21,38.21,0,0,0,1-9.5Z"/><path class="a" d="M1181,216.84c.25,7.5-5.25,13.5-14,13.5-7.75,0-13.25-6-13.25-13.5a13.41,13.41,0,0,1,13.75-13.75C1175.75,203.09,1181,209.09,1181,216.84Zm-24.5,155v-121h22v121Z"/><path class="a" d="M1316.24,338.84c0,12.5.25,23.5,1,33h-19.5l-1.25-19.75h-.5a45.53,45.53,0,0,1-40,22.5c-19,0-41.75-10.5-41.75-53V250.84h22v67c0,23,7,38.5,27,38.5,14.75,0,25-10.25,29-20a32.17,32.17,0,0,0,2-11.25V250.84h22Z"/><path class="a" d="M1352.74,283.59c0-12.5-.25-22.75-1-32.75H1371l1,19.5h.75c6.75-11.5,18-22.25,38-22.25,16.5,0,29,10,34.25,24.25h.5a49.85,49.85,0,0,1,13.5-15.75c7.25-5.5,15.25-8.5,26.75-8.5,16,0,39.75,10.5,39.75,52.5v71.25H1504v-68.5c0-23.25-8.5-37.25-26.25-37.25-12.5,0-22.25,9.25-26,20a36.23,36.23,0,0,0-1.75,11v74.75h-21.5v-72.5c0-19.25-8.5-33.25-25.25-33.25-13.75,0-23.75,11-27.25,22a30.32,30.32,0,0,0-1.75,10.75v73h-21.5Z"/></svg>