<svg xmlns="http://www.w3.org/2000/svg" viewBox="0 0 588.98 589.74"><defs><style>.a{fill:#fff;}.b{fill:#fe9000;}</style></defs><title>MacStadium M Logo</title><rect class="a" x="-14.74" y="-12.27" width="618.46" height="614.29" rx="25" ry="25"/><rect class="b" x="280.98" y="444.75" width="29" height="144.99"/><rect class="b" x="279.99" width="29" height="144.99"/><rect class="b" x="211.1" y="433.62" width="29" height="144.99" transform="translate(171.39 -45.35) rotate(18.41)"/><rect class="b" x="148.88" y="401.86" width="29" height="144.99" transform="translate(309.85 -5.49) rotate(35.98)"/><rect class="b" x="99.77" y="351.98" width="29" height="144.99" transform="translate(393.03 84.58) rotate(54.42)"/><rect class="b" x="68.72" y="290.08" width="29" height="144.99" transform="translate(402.18 171.13) rotate(71.95)"/><rect class="b" x="57.99" y="221.76" width="29" height="144.99" transform="translate(366.74 221.76) rotate(90)"/><rect class="b" x="68.19" y="153.67" width="29" height="144.99" transform="translate(323.33 217.25) rotate(107.96)"/><rect class="b" x="99.75" y="91.11" width="29" height="144.99" transform="translate(313.75 168.23) rotate(126.25)"/><rect class="b" x="211.1" y="10.67" width="29" height="144.99" transform="matrix(0.95, -0.31, 0.31, 0.95, -14.68, 74.33)"/><rect class="b" x="149.6" y="41.35" width="29" height="144.99" transform="translate(-35.55 119.21) rotate(-36.29)"/><path d="M349,307.34c-.75-20.25-1.5-44.5-1.5-69.25H347c-5.5,21.5-12.5,45.5-19,65.25l-20.5,65.75H277.75l-18-65.25c-5.5-19.75-11-43.5-15.25-65.75H244c-.75,22.75-1.75,48.75-2.75,69.75l-3.25,64H202.75l10.75-168.5h50.75l16.5,56.25c5.5,19.5,10.5,40.5,14.25,60.25h1c4.5-19.5,10.25-41.75,16-60.5l17.75-56h50l9,168.5h-37Z"/></svg>