<svg xmlns="http://www.w3.org/2000/svg" viewBox="0 0 2600 800"><defs><style>.a{fill:none;stroke:#fff;stroke-linecap:round;stroke-linejoin:round;stroke-width:4px;}.a,.b{opacity:0.3;}.b{fill:#fff;}</style></defs><title>mosaic-mini</title><rect class="a" x="1652" y="649" width="603" height="126" rx="12" ry="12"/><circle class="b" cx="2160.5" cy="680.5" r="13.5"/><circle class="b" cx="2199.5" cy="680.5" r="7.5"/><rect class="a" x="998.75" y="649" width="603" height="126" rx="12" ry="12"/><circle class="b" cx="1507.25" cy="680.5" r="13.5"/><circle class="b" cx="1546.25" cy="680.5" r="7.5"/><rect class="a" x="347" y="649" width="603" height="126" rx="12" ry="12"/><circle class="b" cx="855.5" cy="680.5" r="13.5"/><circle class="b" cx="894.5" cy="680.5" r="7.5"/><rect class="a" x="1978" y="493" width="603" height="126" rx="12" ry="12"/><circle class="b" cx="2486.5" cy="524.5" r="13.5"/><circle class="b" cx="2525.5" cy="524.5" r="7.5"/><rect class="a" x="1325" y="493" width="603" height="126" rx="12" ry="12"/><circle class="b" cx="1833.5" cy="524.5" r="13.5"/><circle class="b" cx="1872.5" cy="524.5" r="7.5"/><rect class="a" x="672" y="493" width="603" height="126" rx="12" ry="12"/><circle class="b" cx="1180.5" cy="524.5" r="13.5"/><circle class="b" cx="1219.5" cy="524.5" r="7.5"/><rect class="a" x="19" y="493" width="603" height="126" rx="12" ry="12"/><circle class="b" cx="527.5" cy="524.5" r="13.5"/><circle class="b" cx="566.5" cy="524.5" r="7.5"/><rect class="a" x="1652" y="335" width="603" height="126" rx="12" ry="12"/><circle class="b" cx="2160.5" cy="366.5" r="13.5"/><circle class="b" cx="2199.5" cy="366.5" r="7.5"/><rect class="a" x="998.75" y="335" width="603" height="126" rx="12" ry="12"/><circle class="b" cx="1507.25" cy="366.5" r="13.5"/><circle class="b" cx="1546.25" cy="366.5" r="7.5"/><rect class="a" x="347" y="335" width="603" height="126" rx="12" ry="12"/><circle class="b" cx="855.5" cy="366.5" r="13.5"/><circle class="b" cx="894.5" cy="366.5" r="7.5"/><rect class="a" x="1978" y="187" width="603" height="126" rx="12" ry="12"/><circle class="b" cx="2486.5" cy="218.5" r="13.5"/><circle class="b" cx="2525.5" cy="218.5" r="7.5"/><rect class="a" x="1325" y="187" width="603" height="126" rx="12" ry="12"/><circle class="b" cx="1833.5" cy="218.5" r="13.5"/><circle class="b" cx="1872.5" cy="218.5" r="7.5"/><rect class="a" x="672" y="187" width="603" height="126" rx="12" ry="12"/><circle class="b" cx="1180.5" cy="218.5" r="13.5"/><circle class="b" cx="1219.5" cy="218.5" r="7.5"/><rect class="a" x="19" y="187" width="603" height="126" rx="12" ry="12"/><circle class="b" cx="527.5" cy="218.5" r="13.5"/><circle class="b" cx="566.5" cy="218.5" r="7.5"/><rect class="a" x="1652" y="37" width="603" height="126" rx="12" ry="12"/><circle class="b" cx="2160.5" cy="68.5" r="13.5"/><circle class="b" cx="2199.5" cy="68.5" r="7.5"/><rect class="a" x="998.75" y="37" width="603" height="126" rx="12" ry="12"/><circle class="b" cx="1507.25" cy="68.5" r="13.5"/><circle class="b" cx="1546.25" cy="68.5" r="7.5"/><rect class="a" x="347" y="37" width="603" height="126" rx="12" ry="12"/><circle class="b" cx="855.5" cy="68.5" r="13.5"/><circle class="b" cx="894.5" cy="68.5" r="7.5"/></svg>